# xmcd
#
# Track frame offsets:
#	150
#	11752
#	25082
#	39645
#	52290
#	60882
#	73842
#	85750
#	95255
#	105735
#	115905
#	128070
#	139777
#	151372
#	165972
#	176217
#	189095
#	200002
#	212452
#	221722
#
# Disc length: 3080 seconds
#
# Revision: 1
# Processed by: cddbd v1.4PL0 Copyright (c) Steve Scherf et al.
# Submitted via: audiograbber 1.81.02
#
DISCID=150c0614
DTITLE=Various Artist - House Rockin' and Hip Shakin', Volume 4: Bayou Blues Har
DTITLE=p
DYEAR=1900
DGENRE=
TTITLE0=Ponderosa Stomp
TTITLE1=Slim Harpo - Moody Blues
TTITLE2=Lightnin' Slim With Schoolboy Cleve - I'm Him
TTITLE3=Baby Boy Warren With Sonny Boy Williamson - Santa Fe
TTITLE4=Love Shock
TTITLE5=Things Ain't Right
TTITLE6=Vincent Monroe - If I Had My Life To Live Over
TTITLE7=Silas Hogan With Sylvester Buckley - Lonesome La La
TTITLE8=Ole Sonny Boy - You Better Change
TTITLE9=If You Think You've Lost Me
TTITLE10=Lightnin' Slim With Lazy Lester - Wintertime Blues
TTITLE11=Trying To Please
TTITLE12=Whispering Smith - Storm In Texas (Aka Texas Flood)
TTITLE13=Jimmy Anderson - Frankie and Johnny
TTITLE14=Snoopin' Around
TTITLE15=I Told My Little Woman
TTITLE16=Lonesome Sundown With Lazy Lester - Don't Say A Word
TTITLE17=Baby Boy Warren With Sonny Boy Williamson - Bring Me My Machine Gun
TTITLE18=I'll Love You Baby
TTITLE19=Whispering Smith - Hound Dog Twist
EXTD=
EXTT0=
EXTT1=
EXTT2=
EXTT3=
EXTT4=
EXTT5=
EXTT6=
EXTT7=
EXTT8=
EXTT9=
EXTT10=
EXTT11=
EXTT12=
EXTT13=
EXTT14=
EXTT15=
EXTT16=
EXTT17=
EXTT18=
EXTT19=
PLAYORDER=
